<svg width="25" height="25" viewBox="0 0 25 25" fill="none" xmlns="http://www.w3.org/2000/svg">
<path fill-rule="evenodd" clip-rule="evenodd" d="M12.5 24.8701C19.1274 24.8701 24.5 19.4975 24.5 12.8701C24.5 6.2427 19.1274 0.870117 12.5 0.870117C5.87258 0.870117 0.5 6.2427 0.5 12.8701C0.5 19.4975 5.87258 24.8701 12.5 24.8701ZM18.2625 9.04125C18.6475 9.42875 18.7725 10.3113 18.7725 10.3113C18.7725 10.3113 18.9 11.3488 18.9 12.3838V13.3538C18.9 14.3913 18.7725 15.4263 18.7725 15.4263C18.7725 15.4263 18.6475 16.3088 18.2625 16.6963C17.8232 17.1558 17.3373 17.2033 17.0625 17.2301C17.0323 17.2331 17.0047 17.2358 16.98 17.2388C15.19 17.3663 12.5 17.3713 12.5 17.3713C12.5 17.3713 9.1725 17.3413 8.1475 17.2438C8.09764 17.2341 8.03693 17.2267 7.96806 17.2183C7.64326 17.1787 7.13722 17.117 6.735 16.6963C6.3525 16.3088 6.2275 15.4263 6.2275 15.4263C6.2275 15.4263 6.1 14.3888 6.1 13.3538V12.3838C6.1 11.3488 6.23 10.3113 6.23 10.3113C6.23 10.3113 6.3525 9.42875 6.7375 9.04125C7.17678 8.5817 7.66275 8.53421 7.9375 8.50736C7.96766 8.50442 7.99527 8.50172 8.02 8.49875C9.81 8.36875 12.4975 8.36875 12.4975 8.36875H12.5025C12.5025 8.36875 15.19 8.36875 16.98 8.49875C17.0047 8.50172 17.0323 8.50442 17.0625 8.50736C17.3373 8.53421 17.8232 8.5817 18.2625 9.04125ZM11.1775 10.9338V14.5313L14.635 12.7388L11.1775 10.9338Z" fill="#D0D0CC"/>
</svg>
