<svg width="25" height="25" viewBox="0 0 25 25" fill="none" xmlns="http://www.w3.org/2000/svg">
<path fill-rule="evenodd" clip-rule="evenodd" d="M12.5 24.8701C19.1274 24.8701 24.5 19.4975 24.5 12.8701C24.5 6.2427 19.1274 0.870117 12.5 0.870117C5.87258 0.870117 0.5 6.2427 0.5 12.8701C0.5 19.4975 5.87258 24.8701 12.5 24.8701ZM6.9 11.9981C6.9 10.2042 6.9 9.30722 7.25465 8.62449C7.55351 8.04917 8.0226 7.58007 8.59793 7.28121C9.28066 6.92656 10.1776 6.92656 11.9715 6.92656H13.0285C14.8224 6.92656 15.7193 6.92656 16.4021 7.28121C16.9774 7.58007 17.4465 8.04917 17.7454 8.62449C18.1 9.30722 18.1 10.2042 18.1 11.9981V13.0551C18.1 14.849 18.1 15.7459 17.7454 16.4286C17.4465 17.004 16.9774 17.4731 16.4021 17.7719C15.7193 18.1266 14.8224 18.1266 13.0285 18.1266H11.9715C10.1776 18.1266 9.28066 18.1266 8.59793 17.7719C8.0226 17.4731 7.55351 17.004 7.25465 16.4286C6.9 15.7459 6.9 14.849 6.9 13.0551V11.9981ZM9.39033 12.5266C9.39033 10.8091 10.7826 9.41689 12.5 9.41689C14.2174 9.41689 15.6097 10.8091 15.6097 12.5266C15.6097 14.244 14.2174 15.6362 12.5 15.6362C10.7826 15.6362 9.39033 14.244 9.39033 12.5266ZM15.6097 8.71689C15.2231 8.71689 14.9097 9.0303 14.9097 9.41689C14.9097 9.80349 15.2231 10.1169 15.6097 10.1169C15.9963 10.1169 16.3097 9.80349 16.3097 9.41689C16.3097 9.0303 15.9963 8.71689 15.6097 8.71689ZM10.5285 12.5266C10.5285 11.4378 11.4112 10.5551 12.5 10.5551C13.5889 10.5551 14.4716 11.4378 14.4716 12.5266C14.4716 13.6155 13.5889 14.4981 12.5 14.4981C11.4112 14.4981 10.5285 13.6155 10.5285 12.5266Z" fill="#D0D0CC"/>
</svg>
