<svg width="25" height="25" viewBox="0 0 25 25" fill="none" xmlns="http://www.w3.org/2000/svg">
<path fill-rule="evenodd" clip-rule="evenodd" d="M12.5 24.8701C19.1274 24.8701 24.5 19.4975 24.5 12.8701C24.5 6.2427 19.1274 0.870117 12.5 0.870117C5.87258 0.870117 0.5 6.2427 0.5 12.8701C0.5 19.4975 5.87258 24.8701 12.5 24.8701ZM5.37993 12.2697C8.8159 10.7727 11.1071 9.78578 12.2535 9.30895C15.5267 7.94751 16.2068 7.71102 16.6501 7.70321C16.7476 7.70149 16.9656 7.72565 17.1069 7.84024C17.2261 7.937 17.2589 8.0677 17.2746 8.15943C17.2903 8.25116 17.3098 8.46014 17.2943 8.62342C17.1169 10.4871 16.3494 15.0098 15.959 17.0972C15.7937 17.9805 15.4684 18.2766 15.1535 18.3056C14.6115 18.3555 14.1727 18.0427 13.6844 17.6946L13.6844 17.6946C13.5561 17.6031 13.4243 17.5091 13.2863 17.4187C12.7449 17.0638 12.3264 16.7788 11.9068 16.4931L11.9067 16.493L11.9066 16.4929C11.5224 16.2313 11.1373 15.969 10.656 15.6519C9.65448 14.9918 10.0737 14.5877 10.6328 14.0487C10.7233 13.9615 10.8175 13.8707 10.9099 13.7747C10.9511 13.7319 11.1528 13.5444 11.4371 13.2801L11.4374 13.2798L11.4374 13.2798C12.3499 12.4315 14.113 10.7923 14.1575 10.6026C14.1648 10.5715 14.1716 10.4555 14.1027 10.3942C14.0338 10.3329 13.9321 10.3539 13.8587 10.3706C13.7546 10.3942 12.0974 11.4895 8.88711 13.6566C8.41673 13.9796 7.99066 14.1369 7.60893 14.1287C7.18809 14.1196 6.37858 13.8908 5.77679 13.6951C5.68843 13.6664 5.60224 13.6393 5.51906 13.6132L5.51899 13.6131C4.90732 13.4208 4.45813 13.2796 4.5031 12.9209C4.52971 12.7086 4.82199 12.4916 5.37993 12.2697Z" fill="#D0D0CC"/>
</svg>
