<svg width="25" height="25" viewBox="0 0 25 25" fill="none" xmlns="http://www.w3.org/2000/svg">
<path fill-rule="evenodd" clip-rule="evenodd" d="M12.5 24.8701C19.1274 24.8701 24.5 19.4975 24.5 12.8701C24.5 6.2427 19.1274 0.870117 12.5 0.870117C5.87258 0.870117 0.5 6.2427 0.5 12.8701C0.5 19.4975 5.87258 24.8701 12.5 24.8701ZM12.7935 17.8833C12.9822 17.8981 13.1733 17.913 13.368 17.9304V14.8362C13.4699 14.8614 13.5697 14.883 13.6674 14.9043C13.8707 14.9483 14.0652 14.9905 14.252 15.0589C15.5478 15.5279 16.361 16.4761 16.83 17.7415C16.8739 17.8596 16.9279 17.8933 17.046 17.8933C17.5599 17.8883 18.0756 17.8889 18.5905 17.8895C18.7619 17.8897 18.9332 17.8899 19.1043 17.8899H19.3C18.7297 15.97 17.5791 14.5595 15.8278 13.6316C17.6601 12.4843 18.615 10.6352 18.7669 9.42716C18.7567 9.42041 18.7466 9.41366 18.7365 9.41366C18.0515 9.41029 17.3631 9.40691 16.6782 9.41366C16.6377 9.41366 16.5837 9.47777 16.5634 9.52164C16.498 9.66075 16.4377 9.80279 16.3773 9.94481C16.2664 10.2059 16.1555 10.4668 16.0134 10.7094C15.5545 11.499 14.9438 12.1536 14.1002 12.545C13.9483 12.6164 13.7853 12.6642 13.6114 12.7152C13.5304 12.739 13.447 12.7635 13.3612 12.7914V9.42041H11.1713V15.2816C11.1273 15.267 11.0866 15.2544 11.0479 15.2425C10.9886 15.2243 10.9342 15.2076 10.8811 15.1871C10.0409 14.8598 9.45712 14.2524 9.00833 13.4932C8.46507 12.5686 8.21199 11.553 8.09727 10.4968C8.06846 10.2448 8.05161 9.99103 8.03456 9.73437C8.02765 9.63022 8.0207 9.5256 8.01291 9.42041H5.7015C5.7015 9.44259 5.7011 9.46356 5.70071 9.48373C5.69997 9.52188 5.69929 9.55719 5.7015 9.5925C5.70935 9.7057 5.71533 9.8189 5.72131 9.93198C5.73333 10.1593 5.74532 10.3862 5.77236 10.6115C5.78155 10.6894 5.79039 10.7673 5.79923 10.8452C5.84559 11.2538 5.89197 11.6624 5.98832 12.0591C6.1739 12.8217 6.41348 13.5674 6.78128 14.2693C7.50339 15.6393 8.53255 16.6786 9.96326 17.2961C10.4964 17.5255 11.0532 17.6976 11.6268 17.7718C12.011 17.8222 12.3968 17.8523 12.7935 17.8833Z" fill="#D0D0CC"/>
</svg>
